<?xml version="1.0" standalone="no"?><!DOCTYPE svg PUBLIC "-//W3C//DTD SVG 1.1//EN" "http://www.w3.org/Graphics/SVG/1.1/DTD/svg11.dtd"><svg t="1586244834240" class="icon" viewBox="0 0 1024 1024" version="1.1" xmlns="http://www.w3.org/2000/svg" p-id="6729" data-darkreader-inline-fill="" xmlns:xlink="http://www.w3.org/1999/xlink" width="24" height="24"><defs><style type="text/css">[data-darkreader-inline-fill] { fill: var(--darkreader-inline-fill)  !important; }
* {  }
</style></defs><path d="M768 790.528h-128v-118.784c0-70.656-57.344-128-128-128s-128 57.344-128 128v118.784H256V365.056l255.488-167.424L768 365.568v424.96z m-192 0h-128v-118.784c0-35.328 28.672-64 64-64s64 28.672 64 64v118.784z m305.152-427.52l-80.896-53.248v-102.4c0-17.92-14.336-31.744-31.744-31.744s-31.744 14.336-31.744 31.744v60.928L530.432 133.12c-5.632-3.584-11.776-5.12-17.92-4.608-6.144 0-12.288 1.536-17.408 4.608L143.872 363.52c-14.848 9.728-18.944 29.696-9.216 44.544 9.728 14.848 29.696 18.944 44.544 9.216l14.336-9.216v393.216c0 30.208 27.136 54.784 60.416 54.784h518.656c33.28 0 60.416-24.576 60.416-54.784V407.552l13.824 9.216c14.848 9.728 34.816 5.632 44.544-9.216 8.192-15.36 4.096-34.816-10.24-44.544z" fill="#70757A" p-id="6730" data-darkreader-inline-fill="" style="--darkreader-inline-fill:#3e4245;"></path></svg>