<?xml version="1.0" standalone="no"?><!DOCTYPE svg PUBLIC "-//W3C//DTD SVG 1.1//EN" "http://www.w3.org/Graphics/SVG/1.1/DTD/svg11.dtd"><svg t="1583891529812" class="icon" viewBox="0 0 1024 1024" version="1.1" xmlns="http://www.w3.org/2000/svg" p-id="6579" data-darkreader-inline-fill="" width="32" height="32" xmlns:xlink="http://www.w3.org/1999/xlink"><defs><style type="text/css">[data-darkreader-inline-fill] { fill: var(--darkreader-inline-fill)  !important; }
* {  }
</style></defs><path d="M688.128 415.744c-26.624 0-48.128-21.504-48.128-48.128s21.504-48.128 48.128-48.128 48.128 21.504 48.128 48.128c0 27.136-21.504 48.64-48.128 48.128m-160.256 0c-26.624 0-48.128-21.504-48.128-48.128s21.504-48.128 48.128-48.128 48.128 21.504 48.128 48.128c0 27.136-21.504 48.64-48.128 48.128m363.008-256c-8.704-18.944-26.624-31.744-48.128-31.744H373.248c-21.504 0-39.424 13.312-48.128 31.744-3.584 7.168-5.12 15.36-5.12 23.04v136.704H159.744h53.248c-29.184 0-53.248 24.576-53.248 55.296V752.64c0 30.72 24.064 55.296 53.248 55.296h60.928c1.536 0 3.584 1.024 5.632 2.048l0.512 46.08c0 2.56 0.512 5.632 1.536 8.192 1.024 4.096 2.56 7.68 5.12 11.264 10.24 13.312 25.088 20.992 40.448 20.992 14.848 0 28.672-6.656 38.912-18.432l14.336-13.312 45.056-42.496c2.048-2.048 4.608-5.632 6.144-8.192 2.56-2.56 5.632-4.608 9.216-5.12h242.176c15.36 0 29.184-6.656 38.912-17.408l-0.512-0.512h0.512l-29.184-27.136-19.456-18.944h-0.512l-79.872-75.264H384c-115.2-2.048-117.76-96.256-117.76-96.256V355.328c0-1.024 0.512-2.048 0.512-3.072 0-1.024-0.512-2.048-0.512-3.072v-0.512c-1.536-15.872-15.36-28.16-31.232-28.672h85.504v240.64c0 5.12 1.024 10.24 2.56 15.36 6.656 23.04 26.624 39.936 50.688 39.936h242.176c3.584 0.512 6.656 2.56 9.216 5.12 1.536 3.072 3.584 5.632 6.144 8.192l58.88 56.32c10.24 11.776 24.064 18.432 38.912 18.432 2.56 0 5.12-0.512 7.68-1.024 13.312-2.048 25.088-9.216 33.28-19.968 4.096-5.632 6.656-12.288 6.656-19.456v-46.08c1.536-1.024 3.584-2.048 5.12-2.048h60.928c24.064 0 44.544-16.896 51.2-39.936 1.536-5.12 2.56-10.24 2.56-15.36V183.296c-0.512-8.192-2.56-16.384-5.632-23.552" fill="#1A73E8" p-id="6580" data-darkreader-inline-fill="" style="--darkreader-inline-fill:#1652a1;"></path></svg>