<?xml version="1.0" standalone="no"?><!DOCTYPE svg PUBLIC "-//W3C//DTD SVG 1.1//EN" "http://www.w3.org/Graphics/SVG/1.1/DTD/svg11.dtd"><svg t="1583891550993" class="icon" viewBox="0 0 1024 1024" version="1.1" xmlns="http://www.w3.org/2000/svg" p-id="7120" data-darkreader-inline-fill="" width="24" height="24" xmlns:xlink="http://www.w3.org/1999/xlink"><defs><style type="text/css">[data-darkreader-inline-fill] { fill: var(--darkreader-inline-fill)  !important; }
* {  }
</style></defs><path d="M704 720.384c-14.848 0-27.136 9.728-30.72 23.552H440.832c-24.064 0-49.152 13.824-62.464 33.792l-34.304 32.768v-12.8c0-5.12-1.536-10.24-3.584-14.848-11.776-22.528-39.424-39.424-65.536-39.424h-50.688V384h10.752c17.92 0 31.744-14.336 31.744-31.744s-14.336-31.744-31.744-31.744h-21.504c-29.184 0-53.248 25.088-53.248 55.296V752.64c0 30.72 24.064 55.296 53.248 55.296h60.928c2.048 0.512 3.584 1.024 5.632 2.048l0.512 46.08c0 7.168 2.56 13.824 6.656 19.456 10.24 13.312 25.088 20.992 40.96 20.992 14.848 0 28.672-6.656 38.912-18.432l58.88-56.32c2.048-2.048 4.608-5.632 6.144-8.192 2.56-2.56 5.632-4.608 9.216-5.12h242.176c19.968 0 38.4-11.776 47.104-29.696 4.096-5.632 6.144-11.776 6.144-18.944V752.64c-0.512-17.92-14.848-32.256-32.768-32.256" fill="#70757A" p-id="7121" data-darkreader-inline-fill="" style="--darkreader-inline-fill:#3e4245;"></path><path d="M832 551.936h-50.688c-15.872 0-32.256 6.656-45.568 16.896-3.072 2.56-6.144 4.608-8.704 7.168-4.608 4.608-8.192 9.728-11.264 15.36-2.56 4.608-3.584 9.728-3.584 14.848v12.8l-34.304-32.768c-2.56-3.584-5.632-6.656-8.704-9.728-13.824-14.336-34.304-24.064-53.76-24.064H384V192h448v359.936zM890.88 159.744c-8.704-18.944-26.624-31.744-48.128-31.744H373.248c-21.504 0-39.424 13.312-48.128 31.744-3.584 7.168-5.12 15.36-5.12 23.552v377.344c0 5.632 1.024 10.752 2.56 15.36 6.656 23.04 26.624 39.936 51.2 39.936h242.176c3.584 0.512 6.656 2.56 9.216 5.12 1.536 3.072 3.584 5.632 6.144 8.192l58.88 56.32c10.24 11.776 24.064 18.432 38.912 18.432 15.872 0 30.72-7.68 40.448-20.992 4.096-5.632 6.656-12.288 6.656-19.456l0.512-46.08c1.536-1.024 3.584-1.536 5.12-2.048h60.928c24.064 0 44.544-16.896 51.2-39.936 1.536-5.12 2.56-10.24 2.56-15.36V183.296c-0.512-8.192-2.56-15.872-5.632-23.552z" fill="#70757A" p-id="7122" data-darkreader-inline-fill="" style="--darkreader-inline-fill:#3e4245;"></path><path d="M527.872 320c-26.624 0-48.128 21.504-48.128 48.128s21.504 48.128 48.128 48.128 48.128-21.504 48.128-48.128-21.504-48.128-48.128-48.128m160.256 0c-26.624 0-48.128 21.504-48.128 48.128s21.504 48.128 48.128 48.128 48.128-21.504 48.128-48.128-21.504-48.128-48.128-48.128" fill="#70757A" p-id="7123" data-darkreader-inline-fill="" style="--darkreader-inline-fill:#3e4245;"></path></svg>