<?xml version="1.0" standalone="no"?><!DOCTYPE svg PUBLIC "-//W3C//DTD SVG 1.1//EN" "http://www.w3.org/Graphics/SVG/1.1/DTD/svg11.dtd"><svg t="1583891521786" class="icon" viewBox="0 0 1024 1024" version="1.1" xmlns="http://www.w3.org/2000/svg" p-id="6399" data-darkreader-inline-fill="" width="24" height="24" xmlns:xlink="http://www.w3.org/1999/xlink"><defs><style type="text/css">[data-darkreader-inline-fill] { fill: var(--darkreader-inline-fill)  !important; }
* {  }
</style></defs><path d="M614.912 448H391.168c-17.92 0-31.744-14.336-31.744-31.744s14.336-31.744 31.744-31.744h224.256c17.92 0 31.744 14.336 31.744 31.744s-14.336 31.744-32.256 31.744m257.536-69.632l-56.32-136.704c-2.048-5.12-5.12-10.24-8.704-14.848v-2.56h-2.048c-15.36-18.944-39.936-31.744-63.488-31.744H264.704c-23.552 0-48.128 12.8-63.488 31.744h-2.048v2.56c-3.584 4.608-6.656 9.728-8.704 14.848L133.632 378.368c-11.264 27.136-5.632 64.512 12.8 87.04l52.224 63.488 65.024 78.848 193.536 235.008c11.264 13.824 28.16 22.016 45.056 22.016 17.408 0 33.792-8.192 45.056-22.016l193.536-235.008 65.536-79.36 52.224-63.488c19.456-22.528 25.088-58.88 13.824-86.528" fill="#1A73E8" p-id="6400" data-darkreader-inline-fill="" style="--darkreader-inline-fill:#1652a1;"></path></svg>