<?xml version="1.0" standalone="no"?><!DOCTYPE svg PUBLIC "-//W3C//DTD SVG 1.1//EN" "http://www.w3.org/Graphics/SVG/1.1/DTD/svg11.dtd"><svg t="1583891545052" class="icon" viewBox="0 0 1024 1024" version="1.1" xmlns="http://www.w3.org/2000/svg" p-id="6939" data-darkreader-inline-fill="" width="24" height="24" xmlns:xlink="http://www.w3.org/1999/xlink"><defs><style type="text/css">[data-darkreader-inline-fill] { fill: var(--darkreader-inline-fill)  !important; }
* {  }
</style></defs><path d="M809.984 424.96l-306.688 372.224-307.2-372.224c-3.584-4.608-5.632-16.384-3.072-22.016l56.32-136.704c2.048-4.608 10.24-10.24 14.848-10.24h477.184c4.608 0 13.312 5.632 14.848 10.24l56.32 136.704c3.072 5.12 1.024 16.896-2.56 22.016m62.464-46.592l-56.832-136.704c-11.776-28.16-43.52-49.664-74.24-49.664H264.704c-30.72 0-62.464 21.504-74.24 49.664l-56.32 136.704c-11.264 27.136-5.632 64.512 12.8 87.04l311.296 377.344c11.264 13.824 28.16 22.016 45.056 22.016 17.408 0 33.792-8.192 45.056-22.016l311.296-377.344c18.432-23.04 24.064-59.392 12.8-87.04" fill="#70757A" p-id="6940" data-darkreader-inline-fill="" style="--darkreader-inline-fill:#3e4245;"></path><path d="M614.912 384H391.168c-17.92 0-31.744 14.336-31.744 31.744s14.336 31.744 31.744 31.744h224.256c17.92 0 31.744-14.336 31.744-31.744s-14.336-31.744-32.256-31.744" fill="#70757A" p-id="6941" data-darkreader-inline-fill="" style="--darkreader-inline-fill:#3e4245;"></path></svg>