<?xml version="1.0" standalone="no"?><!DOCTYPE svg PUBLIC "-//W3C//DTD SVG 1.1//EN" "http://www.w3.org/Graphics/SVG/1.1/DTD/svg11.dtd"><svg t="1583891538355" class="icon" viewBox="0 0 1024 1024" version="1.1" xmlns="http://www.w3.org/2000/svg" p-id="6759" data-darkreader-inline-fill="" width="24" height="24" xmlns:xlink="http://www.w3.org/1999/xlink"><defs><style type="text/css">[data-darkreader-inline-fill] { fill: var(--darkreader-inline-fill)  !important; }
* {  }
</style></defs><path d="M512 832c-79.872 0-156.672-30.208-215.552-84.48 54.784-17.92 146.432-43.52 213.504-43.52 68.096 0 162.304 27.136 216.576 44.544-58.368 53.76-135.168 83.456-214.528 83.456m0-223.744c-52.736 0-96.256-43.008-96.256-96.256V416.256c0-53.248 43.008-95.744 96.256-96.256 52.736 0 96.256 43.008 96.256 96.256V512c-0.512 52.736-43.008 95.744-96.256 96.256m0-416.256c176.64 0 320 143.36 320 320 0 66.048-20.48 130.56-59.392 184.832-34.304-11.776-107.008-35.328-178.688-48.128 46.592-28.16 77.824-78.336 77.824-136.704V416.256c0-88.576-71.68-159.744-159.744-160.256-88.064 0-159.744 71.68-159.744 160.256V512c0 57.856 30.72 108.032 76.8 136.192-70.656 12.288-142.336 35.328-178.688 47.616-37.888-53.76-58.368-117.76-58.368-183.808 0-176.64 143.36-320 320-320m0-64c-211.968 0-384 172.032-384 384s172.032 384 384 384 384-172.032 384-384-172.032-384-384-384" fill="#70757A" p-id="6760" data-darkreader-inline-fill="" style="--darkreader-inline-fill:#3e4245;"></path></svg>