<?xml version="1.0" standalone="no"?><!DOCTYPE svg PUBLIC "-//W3C//DTD SVG 1.1//EN" "http://www.w3.org/Graphics/SVG/1.1/DTD/svg11.dtd"><svg t="1583891516409" class="icon" viewBox="0 0 1024 1024" version="1.1" xmlns="http://www.w3.org/2000/svg" p-id="6219" data-darkreader-inline-fill="" width="32" height="32" xmlns:xlink="http://www.w3.org/1999/xlink"><defs><style type="text/css">[data-darkreader-inline-fill] { fill: var(--darkreader-inline-fill)  !important; }
* {  }
</style></defs><path d="M512 832c-79.872 0-156.672-30.208-215.552-84.48 54.784-17.92 146.432-43.52 213.504-43.52 68.096 0 162.304 27.136 216.576 44.544-58.368 53.76-135.168 83.456-214.528 83.456zM352.256 507.392V416.256C352.256 327.68 423.424 256 512 256c88.064 0 159.744 71.68 159.744 160.256v95.232c0 10.24-1.024 19.968-3.072 29.696l-1.024 4.608c-4.096 18.944-11.776 36.864-22.528 53.248l-2.048 3.072c-11.264 15.872-25.088 29.696-40.96 40.96l-2.048 1.536c-26.112 17.408-56.832 26.624-88.576 26.624-31.744 0-62.464-9.216-88.576-27.136l-1.536-1.024c-15.872-11.264-30.208-25.088-40.96-40.96l-2.048-3.072c-10.752-16.384-18.432-34.304-22.528-53.248l-1.024-4.608c-2.048-9.728-3.072-19.968-3.072-29.696 0-0.512 0-4.096 0.512-4.096zM512 128c-211.968 0-384 172.032-384 384s172.032 384 384 384 384-172.032 384-384-172.032-384-384-384z" fill="#1A73E8" p-id="6220" data-darkreader-inline-fill="" style="--darkreader-inline-fill:#1652a1;"></path></svg>