<?xml version="1.0" standalone="no"?><!DOCTYPE svg PUBLIC "-//W3C//DTD SVG 1.1//EN" "http://www.w3.org/Graphics/SVG/1.1/DTD/svg11.dtd"><svg t="1584063663515" class="icon" viewBox="0 0 1024 1024" version="1.1" xmlns="http://www.w3.org/2000/svg" p-id="6049" data-darkreader-inline-fill="" width="44" height="44" xmlns:xlink="http://www.w3.org/1999/xlink"><defs><style type="text/css">[data-darkreader-inline-fill] { fill: var(--darkreader-inline-fill)  !important; }
* {  }
</style></defs><path d="M512 1002.212766c271.251064 0 490.212766-218.961702 490.212766-490.212766s-218.961702-490.212766-490.212766-490.212766-490.212766 218.961702-490.212766 490.212766 218.961702 490.212766 490.212766 490.212766z m0 21.787234c-283.234043 0-512-228.765957-512-512s228.765957-512 512-512 512 228.765957 512 512-228.765957 512-512 512z" p-id="6050" fill="#82C36B" data-darkreader-inline-fill="" style="--darkreader-inline-fill:#39602a;"></path><path d="M638.365957 418.314894c6.53617 0 13.07234 0 19.608511 1.089361-18.519149-83.880851-107.846809-145.974468-210.246808-145.974468-114.382979 0-208.068085 78.434043-208.068086 177.565958 0 56.646809 31.591489 104.578723 82.79149 140.527659l-20.697873 62.093617 72.987235-35.948936c26.144681 5.446809 46.842553 10.893617 72.987234 10.893617 6.53617 0 13.07234 0 19.60851-1.089362-4.357447-14.161702-6.53617-28.323404-6.53617-43.574468 0-92.595745 78.434043-165.582979 177.565957-165.582978z m-112.204255-56.646809c15.251064 0 26.144681 9.804255 26.144681 26.144681 0 15.251064-9.804255 26.144681-26.144681 26.144681-15.251064 0-31.591489-10.893617-31.591489-26.144681 0-16.340426 15.251064-26.144681 31.591489-26.144681z m-145.974468 52.289362c-15.251064 0-31.591489-10.893617-31.591489-26.144681s15.251064-26.144681 31.591489-26.144681 26.144681 9.804255 26.144681 26.144681c0 15.251064-10.893617 26.144681-26.144681 26.144681z m447.72766 166.67234c0-82.791489-82.791489-151.421277-176.476596-151.421276-99.131915 0-177.565957 67.540426-177.565958 151.421276s78.434043 151.421277 177.565958 151.421277c20.697872 0 41.395745-5.446809 62.093617-10.893617l56.646808 31.591489-15.251063-52.289362c41.395745-31.591489 72.987234-72.987234 72.987234-119.829787z m-234.212766-26.144681c-9.804255 0-20.697872-9.804255-20.697873-20.697872 0-10.893617 10.893617-20.697872 20.697873-20.697872 16.340426 0 26.144681 10.893617 26.144681 20.697872 0 9.804255-10.893617 20.697872-26.144681 20.697872z m114.382978 0c-9.804255 0-20.697872-9.804255-20.697872-20.697872 0-10.893617 10.893617-20.697872 20.697872-20.697872 15.251064 0 26.144681 10.893617 26.144681 20.697872 0 9.804255-10.893617 20.697872-26.144681 20.697872z" p-id="6051" fill="#82C36B" data-darkreader-inline-fill="" style="--darkreader-inline-fill:#39602a;"></path></svg>